<svg xmlns="http://www.w3.org/2000/svg" viewBox="0 0 1920 1080" width="1920" height="1080">
  <defs>
    <!-- Brand Gradients -->
    <linearGradient id="g1" x1="0%" y1="0%" x2="0%" y2="100%"><stop offset="0%" stop-color="#38e2fc"/><stop offset="100%" stop-color="#06b6d4"/></linearGradient>
    <linearGradient id="g2" x1="0%" y1="0%" x2="0%" y2="100%"><stop offset="0%" stop-color="#7dd3fc"/><stop offset="100%" stop-color="#38bdf8"/></linearGradient>
    <linearGradient id="g3" x1="0%" y1="0%" x2="0%" y2="100%"><stop offset="0%" stop-color="#818cf8"/><stop offset="100%" stop-color="#6366f1"/></linearGradient>
    <linearGradient id="g4" x1="0%" y1="0%" x2="0%" y2="100%"><stop offset="0%" stop-color="#c084fc"/><stop offset="100%" stop-color="#a855f7"/></linearGradient>
    <linearGradient id="g5" x1="0%" y1="0%" x2="0%" y2="100%"><stop offset="0%" stop-color="#f472b6"/><stop offset="100%" stop-color="#ec4899"/></linearGradient>
    <linearGradient id="g6" x1="0%" y1="0%" x2="0%" y2="100%"><stop offset="0%" stop-color="#fb7185"/><stop offset="100%" stop-color="#f43f5e"/></linearGradient>
    <linearGradient id="g7" x1="0%" y1="0%" x2="0%" y2="100%"><stop offset="0%" stop-color="#fdba74"/><stop offset="100%" stop-color="#fb923c"/></linearGradient>
    <linearGradient id="g8" x1="0%" y1="0%" x2="0%" y2="100%"><stop offset="0%" stop-color="#fde047"/><stop offset="100%" stop-color="#eab308"/></linearGradient>
    <linearGradient id="g9" x1="0%" y1="0%" x2="0%" y2="100%"><stop offset="0%" stop-color="#34d399"/><stop offset="100%" stop-color="#10b981"/></linearGradient>
    <linearGradient id="g10" x1="0%" y1="0%" x2="0%" y2="100%"><stop offset="0%" stop-color="#67e8f9"/><stop offset="100%" stop-color="#00f2fe"/></linearGradient>

    <!-- Wordmark Gradients -->
    <linearGradient id="deskGrad" x1="0%" y1="0%" x2="100%" y2="0%">
      <stop offset="0%" stop-color="#38bdf8"/>
      <stop offset="45%" stop-color="#a855f7"/>
      <stop offset="100%" stop-color="#ec4899"/>
    </linearGradient>

    <linearGradient id="deckGrad" x1="0%" y1="0%" x2="100%" y2="0%">
      <stop offset="0%" stop-color="#38bdf8"/>
      <stop offset="45%" stop-color="#a855f7"/>
      <stop offset="100%" stop-color="#ec4899"/>
    </linearGradient>

    <linearGradient id="tabGrad" x1="0%" y1="0%" x2="100%" y2="0%">
      <stop offset="0%" stop-color="#38bdf8"/>
      <stop offset="45%" stop-color="#a855f7"/>
      <stop offset="100%" stop-color="#ec4899"/>
    </linearGradient>

    <linearGradient id="spineGrad" x1="0%" y1="0%" x2="100%" y2="0%">
      <stop offset="0%" stop-color="#38bdf8"/>
      <stop offset="100%" stop-color="#ec4899"/>
    </linearGradient>

    <linearGradient id="stemGrad" x1="0%" y1="0%" x2="0%" y2="100%">
      <stop offset="0%" stop-color="#38bdf8"/>
      <stop offset="100%" stop-color="#6366f1"/>
    </linearGradient>

    <!-- Deep Clean Obsidian Vignette -->
    <radialGradient id="bgVignette" cx="50%" cy="50%" r="75%">
      <stop offset="0%" stop-color="#0c1114"/>
      <stop offset="50%" stop-color="#080c0e"/>
      <stop offset="100%" stop-color="#040607"/>
    </radialGradient>

    <!-- Faint Hero Backlight -->
    <radialGradient id="faintGlow" cx="50%" cy="50%" r="50%">
      <stop offset="0%" stop-color="#6366f1" stop-opacity="0.06"/>
      <stop offset="55%" stop-color="#06b6d4" stop-opacity="0.02"/>
      <stop offset="100%" stop-color="#06b6d4" stop-opacity="0"/>
    </radialGradient>

    <filter id="faintBlur" x="-30%" y="-30%" width="160%" height="160%">
      <feGaussianBlur stdDeviation="40"/>
    </filter>

    <!-- Reusable gutterDeck Barcode Group (Height 184, Center Y=128) -->
    <g id="deckBarcode">
      <rect x="32"  y="36" width="16" height="184" rx="6" fill="url(#g1)"/>
      <rect x="54"  y="46" width="9"  height="164" rx="4.5" fill="url(#g2)"/>
      <rect x="68"  y="46" width="22" height="164" rx="6" fill="url(#g3)"/>
      <rect x="95"  y="46" width="11" height="164" rx="5.5" fill="url(#g4)"/>
      <rect x="111" y="36" width="15" height="184" rx="6" fill="url(#g5)"/>
      <rect x="131" y="46" width="25" height="164" rx="6" fill="url(#g6)"/>
      <rect x="161" y="46" width="9"  height="164" rx="4.5" fill="url(#g7)"/>
      <rect x="175" y="46" width="17" height="164" rx="6" fill="url(#g8)"/>
      <rect x="197" y="46" width="10" height="164" rx="5" fill="url(#g9)"/>
      <rect x="212" y="36" width="16" height="184" rx="6" fill="url(#g10)"/>
    </g>

    <!-- Reusable gutterTab Bento Group (Height 184, Center Y=128) -->
    <g id="tabBento">
      <rect x="36" y="36" width="162" height="64" rx="8" fill="url(#g1)"/>
      <rect x="36"  y="108" width="77" height="50" rx="7" fill="url(#g3)"/>
      <rect x="121" y="108" width="77" height="50" rx="7" fill="url(#g5)"/>
      <rect x="36"  y="166" width="58" height="54" rx="7" fill="url(#g7)"/>
      <rect x="102" y="166" width="96" height="54" rx="7" fill="url(#g9)"/>
      <rect x="206" y="36" width="14" height="184" rx="5" fill="url(#spineGrad)"/>
    </g>

    <!-- Reusable gutterDesk Bento Matrix -->
    <g id="deskMatrix">
      <rect x="36" y="36" width="72" height="142" rx="10" fill="url(#stemGrad)"/>
      <rect x="36" y="36" width="72" height="18" rx="10" fill="#000000" opacity="0.22"/>
      <circle cx="45" cy="45" r="2.2" fill="#ffffff" opacity="0.8"/>
      <circle cx="52" cy="45" r="2.2" fill="#ffffff" opacity="0.8"/>
      <circle cx="59" cy="45" r="2.2" fill="#ffffff" opacity="0.8"/>
      <line x1="56" y1="58" x2="56" y2="168" stroke="#ffffff" stroke-opacity="0.25" stroke-width="1.2"/>
      <rect x="62" y="62" width="36" height="3.5" rx="1.75" fill="#ffffff" opacity="0.9"/>
      <rect x="62" y="71" width="24" height="3.5" rx="1.75" fill="#38e2fc" opacity="0.95"/>
      <rect x="68" y="80" width="32" height="3" rx="1.5" fill="#ffffff" opacity="0.5"/>
      <rect x="68" y="88" width="22" height="3" rx="1.5" fill="#ffffff" opacity="0.5"/>
      <rect x="62" y="97" width="38" height="3.5" rx="1.75" fill="#ffffff" opacity="0.9"/>
      <rect x="68" y="106" width="28" height="3" rx="1.5" fill="#38e2fc" opacity="0.85"/>
      <rect x="68" y="114" width="34" height="3" rx="1.5" fill="#ffffff" opacity="0.5"/>
      <rect x="62" y="123" width="20" height="3.5" rx="1.75" fill="#ffffff" opacity="0.7"/>
      <rect x="62" y="134" width="38" height="14" rx="4" fill="#000000" opacity="0.22"/>
      <rect x="66" y="139" width="16" height="4" rx="2" fill="#38e2fc"/>
      <rect x="62" y="154" width="30" height="3" rx="1.5" fill="#ffffff" opacity="0.45"/>
      <rect x="62" y="162" width="22" height="3" rx="1.5" fill="#ffffff" opacity="0.45"/>

      <!-- Right Upper Tile -->
      <path d="M 116 46 A 10 10 0 0 1 126 36 L 194 36 A 26 26 0 0 1 220 62 L 220 93 A 10 10 0 0 1 210 103 L 126 103 A 10 10 0 0 1 116 93 Z"
            fill="url(#g5)"/>
      <rect x="124" y="44" width="46" height="8" rx="4" fill="#ffffff" opacity="0.3"/>
      <circle cx="180" cy="48" r="2.2" fill="#ffffff" opacity="0.75"/>
      <circle cx="187" cy="48" r="2.2" fill="#ffffff" opacity="0.75"/>
      <circle cx="194" cy="48" r="2.2" fill="#ffffff" opacity="0.75"/>
      <rect x="124" y="58" width="40" height="36" rx="5" fill="#ffffff" opacity="0.22"/>
      <rect x="170" y="58" width="40" height="16" rx="4" fill="#ffffff" opacity="0.3"/>
      <rect x="170" y="78" width="40" height="16" rx="4" fill="#ffffff" opacity="0.3"/>

      <!-- Right Lower Tile -->
      <path d="M 116 121 A 10 10 0 0 1 126 111 L 210 111 A 10 10 0 0 1 220 121 L 220 152 A 26 26 0 0 1 194 178 L 126 178 A 10 10 0 0 1 116 168 Z"
            fill="url(#g7)"/>
      <rect x="124" y="119" width="40" height="22" rx="5" fill="#ffffff" opacity="0.24"/>
      <rect x="129" y="127" width="20" height="5" rx="2.5" fill="#ffffff" opacity="0.95"/>
      <rect x="170" y="119" width="40" height="22" rx="5" fill="#ffffff" opacity="0.24"/>
      <rect x="175" y="127" width="24" height="5" rx="2.5" fill="#ffffff" opacity="0.95"/>
      <rect x="124" y="147" width="86" height="20" rx="5" fill="#ffffff" opacity="0.2"/>
      <rect x="129" y="155" width="56" height="4" rx="2" fill="#ffffff" opacity="0.9"/>

      <!-- Bottom Foundation Panel -->
      <rect x="36" y="188" width="184" height="22" rx="7" fill="#141624" stroke="url(#spineGrad)" stroke-width="1.6" stroke-opacity="0.8"/>
      <rect x="42" y="193" width="15" height="12" rx="3.5" fill="url(#g1)"/>
      <rect x="47.5" y="197" width="4" height="4" rx="1" fill="#0b0c12"/>
      <rect x="60" y="193" width="12" height="12" rx="3" fill="#ffffff" opacity="0.18"/>
      <rect x="75" y="193" width="12" height="12" rx="3" fill="#ffffff" opacity="0.18"/>
      <rect x="90" y="193" width="12" height="12" rx="3" fill="#ffffff" opacity="0.18"/>
      <line x1="108" y1="194" x2="108" y2="204" stroke="#ffffff" stroke-opacity="0.2" stroke-width="1"/>
      <g transform="translate(116, 196)">
        <rect x="0"  y="0" width="5" height="6" rx="2" fill="url(#g1)"/>
        <rect x="8"  y="0" width="5" height="6" rx="2" fill="url(#g2)"/>
        <rect x="16" y="0" width="6" height="6" rx="2" fill="url(#g3)"/>
        <rect x="25" y="0" width="5" height="6" rx="2" fill="url(#g4)"/>
        <rect x="33" y="0" width="5" height="6" rx="2" fill="url(#g5)"/>
        <rect x="41" y="0" width="6" height="6" rx="2" fill="url(#g6)"/>
        <rect x="50" y="0" width="5" height="6" rx="2" fill="url(#g7)"/>
        <rect x="58" y="0" width="6" height="6" rx="2" fill="url(#g8)"/>
        <rect x="67" y="0" width="5" height="6" rx="2" fill="url(#g9)"/>
        <rect x="75" y="0" width="5" height="6" rx="2" fill="url(#g10)"/>
      </g>
    </g>
  </defs>

  <!-- Canvas Background -->
  <rect width="1920" height="1080" fill="url(#bgVignette)"/>

  <!-- Subtle Ambient Glow behind Hero -->
  <ellipse cx="960" cy="520" rx="440" ry="220" fill="url(#faintGlow)" filter="url(#faintBlur)"/>

  <!-- ================= CENTER HERO: gutterDesk Horizontal Lockup (Emblem + Wordmark) ================= -->
  <g transform="translate(543, 370)">
    <!-- Emblem (Centered on Y=150) -->
    <g transform="translate(60, 8.55) scale(1.15)">
      <use href="#deskMatrix"/>
    </g>

    <!-- Typography (Centered on Y=150) -->
    <g transform="translate(340, 0)">
      <text x="0" y="157"
            font-family="'Inter', 'Liberation Sans', 'DejaVu Sans', -apple-system, sans-serif"
            font-size="82" font-weight="400" letter-spacing="-1.5px">
        <tspan fill="#F8FAFC" font-weight="400">gutter</tspan><tspan fill="url(#deskGrad)" font-weight="800">Desk</tspan>
      </text>
      <text x="4" y="195"
            font-family="'Inter', 'Liberation Sans', 'DejaVu Sans', sans-serif"
            font-size="16" font-weight="500" letter-spacing="3.5px" fill="#94A3B8">
        Tactile Workspace Distro
      </text>
    </g>
  </g>


  <!-- ================= BOTTOM RIGHT: SISTER APPS (Subtle, Compact above Tray) ================= -->
  <g id="bottom-right-sisters" transform="translate(1620, 1008)" opacity="0.65">
    <!-- gutterDeck Lockup -->
    <g transform="translate(0, 0)">
      <g transform="translate(0, -6) scale(0.14)">
        <use href="#deckBarcode"/>
      </g>
      <text x="36" y="16"
            font-family="'Inter', 'Liberation Sans', 'DejaVu Sans', -apple-system, sans-serif"
            font-size="14" font-weight="400" letter-spacing="-0.3px">
        <tspan fill="#CBD5E1">gutter</tspan><tspan fill="url(#deckGrad)" font-weight="700">Deck</tspan>
      </text>
    </g>

    <!-- Divider dot -->
    <circle cx="132" cy="11" r="2" fill="#475569"/>

    <!-- gutterTab Lockup -->
    <g transform="translate(148, 0)">
      <g transform="translate(0, -6) scale(0.14)">
        <use href="#tabBento"/>
      </g>
      <text x="36" y="16"
            font-family="'Inter', 'Liberation Sans', 'DejaVu Sans', -apple-system, sans-serif"
            font-size="14" font-weight="400" letter-spacing="-0.3px">
        <tspan fill="#CBD5E1">gutter</tspan><tspan fill="url(#tabGrad)" font-weight="700">Tab</tspan>
      </text>
    </g>
  </g>

</svg>